# xmcd
#
# Track frame offsets:
#	150
#	9237
#	26235
#	45497
#	59672
#	74442
#	94070
#	106185
#	123365
#	135725
#	147152
#
# Disc length: 2000 seconds
#
# Revision: 0
# Processed by: cddbd v1.4PL0 Copyright (c) Steve Scherf et al.
# Submitted via: dBpowerAMP V4.0
#
DISCID=9707ce0b
DTITLE=Various Artist - "Forever in Bluegrass" Tribute to Neil Diamond
DYEAR=1900
DGENRE=Bluegrass
TTITLE0=Forever in Blue Jeans
TTITLE1=America
TTITLE2=Sweet Caroline
TTITLE3=Mama Don't Know
TTITLE4=Solitary Man
TTITLE5=Cracklin' Rose
TTITLE6=Beautiful Noise
TTITLE7=Sone Sung Blue
TTITLE8=I'm a Believer
TTITLE9=Red, Red Wine
TTITLE10=Other
EXTD=
EXTT0=
EXTT1=
EXTT2=
EXTT3=
EXTT4=
EXTT5=
EXTT6=
EXTT7=
EXTT8=
EXTT9=
EXTT10=
PLAYORDER=
